<svg width="116" height="30" viewBox="0 0 116 30" fill="none" xmlns="http://www.w3.org/2000/svg">
<g clip-path="url(#clip0_1107_1343)">
<path d="M17.4394 29.9999H8.39689C8.28972 29.9998 8.18438 29.9723 8.09102 29.9198C7.99767 29.8674 7.91947 29.7919 7.86396 29.7006C7.80846 29.6093 7.77753 29.5053 7.77417 29.3986C7.7708 29.2919 7.79511 29.1861 7.84475 29.0915L9.51406 25.9136C9.56361 25.8191 9.58785 25.7134 9.58443 25.6068C9.58101 25.5002 9.55006 25.3963 9.49456 25.3051C9.43905 25.2138 9.36088 25.1384 9.26757 25.0861C9.17427 25.0338 9.069 25.0063 8.96192 25.0063H8.94491C6.01821 25.0063 3.20546 23.6548 1.54647 21.2522C-0.272856 18.6119 -0.497629 15.2815 0.927824 12.442L4.76495 4.79832C5.48454 3.35304 6.59625 2.13744 7.97406 1.28933C9.35186 0.441223 10.9407 -0.00547888 12.5604 -0.000135728H21.541C21.6471 -0.000118111 21.7515 0.0269023 21.8442 0.0783639C21.937 0.129825 22.015 0.204023 22.0708 0.293922C22.1267 0.383822 22.1586 0.486444 22.1635 0.59206C22.1684 0.697676 22.1461 0.802786 22.0988 0.897425L20.5006 4.09948C20.4535 4.19386 20.4313 4.29866 20.4363 4.40395C20.4412 4.50924 20.473 4.61154 20.5287 4.70117C20.5844 4.79079 20.6621 4.86477 20.7546 4.91609C20.847 4.96742 20.9511 4.9944 21.0569 4.99447C23.9836 4.99447 26.7968 6.34492 28.4538 8.74749C30.2752 11.3878 30.4994 14.7182 29.0724 17.5578L25.2348 25.2009C24.5153 26.6463 23.4036 27.862 22.0258 28.7103C20.648 29.5585 19.0591 30.0052 17.4394 29.9999ZM5.41298 14.6756C5.13107 15.2222 4.99378 15.8315 5.01408 16.4457C5.03438 17.0599 5.21159 17.6588 5.52897 18.1857C6.21257 19.3436 7.50399 20.0101 8.85263 20.0101H11.5025C11.6089 20.0102 11.7135 20.0373 11.8064 20.089C11.8993 20.1406 11.9774 20.2151 12.0333 20.3053C12.0891 20.3955 12.1209 20.4985 12.1255 20.6044C12.1302 20.7102 12.1075 20.8156 12.0598 20.9103L10.4461 24.1056C10.3981 24.2003 10.3753 24.3057 10.3798 24.4116C10.3843 24.5176 10.4159 24.6207 10.4718 24.711C10.5276 24.8013 10.6057 24.8759 10.6987 24.9276C10.7917 24.9793 10.8964 25.0064 11.0029 25.0063H17.4394C18.1266 25.0063 18.8003 24.8157 19.3848 24.4559C19.9694 24.096 20.4418 23.5811 20.7491 22.9688L24.5867 15.3252C25.1595 14.1837 25.1162 12.9092 24.4708 11.8155C23.7872 10.6571 22.4957 9.99062 21.1471 9.99062H18.6426C18.5373 9.99067 18.4336 9.96411 18.3414 9.91343C18.2491 9.86275 18.1713 9.78961 18.1151 9.70084C18.0589 9.61206 18.0262 9.51055 18.0201 9.40579C18.014 9.30103 18.0347 9.19644 18.0802 9.10179L19.6268 5.88433C19.6721 5.78967 19.6927 5.68511 19.6865 5.58041C19.6803 5.4757 19.6477 5.37426 19.5915 5.28553C19.5354 5.19679 19.4576 5.12367 19.3654 5.07295C19.2732 5.02224 19.1696 4.99559 19.0643 4.9955H12.5609C11.8733 4.99559 11.1994 5.18641 10.6147 5.54655C10.0299 5.9067 9.55738 6.42194 9.2501 7.03452L5.41298 14.6756Z" fill="url(#paint0_linear_1107_1343)"/>
</g>
<path d="M39.912 22L46.248 6.6H49.922L56.192 22H52.738L51.176 17.952H44.818L43.234 22H39.912ZM45.808 15.4H50.208L48.008 9.724L45.808 15.4ZM62.8387 22.154C61.7534 22.154 60.7707 21.89 59.8907 21.362C59.0107 20.834 58.3067 20.13 57.7787 19.25C57.2654 18.3553 57.0087 17.358 57.0087 16.258C57.0087 15.158 57.2654 14.168 57.7787 13.288C58.3067 12.3933 59.0181 11.6893 59.9127 11.176C60.8074 10.648 61.8121 10.384 62.9267 10.384C63.4987 10.384 64.0487 10.4647 64.5767 10.626C65.1047 10.7727 65.5961 10.9927 66.0507 11.286V6.6L69.0647 6.094V22H66.0947V21.054C65.1561 21.7873 64.0707 22.154 62.8387 22.154ZM63.3227 19.58C63.8801 19.58 64.3861 19.492 64.8407 19.316C65.3101 19.1253 65.7134 18.8467 66.0507 18.48V14.014C65.7134 13.6767 65.3101 13.4127 64.8407 13.222C64.3714 13.0313 63.8654 12.936 63.3227 12.936C62.6921 12.936 62.1201 13.0827 61.6067 13.376C61.1081 13.6547 60.7121 14.0507 60.4187 14.564C60.1254 15.0627 59.9787 15.6273 59.9787 16.258C59.9787 16.8887 60.1254 17.4533 60.4187 17.952C60.7121 18.4507 61.1081 18.8467 61.6067 19.14C62.1201 19.4333 62.6921 19.58 63.3227 19.58ZM72.2957 22V6.6L75.3097 6.094V22H72.2957ZM82.1987 22.198C81.3774 22.198 80.6514 22.0513 80.0207 21.758C79.3901 21.45 78.8987 21.032 78.5467 20.504C78.1947 19.976 78.0187 19.3673 78.0187 18.678C78.0187 17.578 78.4294 16.7273 79.2507 16.126C80.0867 15.51 81.2307 15.202 82.6827 15.202C83.6801 15.202 84.6187 15.356 85.4987 15.664V14.828C85.4987 14.168 85.2934 13.6693 84.8827 13.332C84.4721 12.9947 83.8707 12.826 83.0787 12.826C82.5947 12.826 82.0741 12.9067 81.5167 13.068C80.9594 13.2147 80.3141 13.4493 79.5807 13.772L78.4807 11.55C79.3901 11.1393 80.2554 10.8313 81.0767 10.626C81.9127 10.4207 82.7487 10.318 83.5847 10.318C85.1247 10.318 86.3201 10.692 87.1707 11.44C88.0361 12.1733 88.4687 13.2147 88.4687 14.564V22H85.4987V21.186C85.0294 21.538 84.5234 21.7947 83.9808 21.956C83.4381 22.1173 82.8441 22.198 82.1987 22.198ZM80.8787 18.612C80.8787 19.052 81.0694 19.404 81.4507 19.668C81.8321 19.9173 82.3381 20.042 82.9687 20.042C83.4674 20.042 83.9294 19.9833 84.3547 19.866C84.7801 19.734 85.1614 19.5433 85.4987 19.294V17.622C85.1321 17.4753 84.7507 17.3653 84.3547 17.292C83.9587 17.2187 83.5334 17.182 83.0787 17.182C82.3894 17.182 81.8467 17.314 81.4507 17.578C81.0694 17.8273 80.8787 18.172 80.8787 18.612ZM95.9199 22.22C94.8639 22.22 93.8885 22.088 92.9939 21.824C92.0992 21.5453 91.3219 21.1493 90.6619 20.636L92.1579 18.634C92.8179 19.074 93.4485 19.404 94.0499 19.624C94.6659 19.844 95.2745 19.954 95.8759 19.954C96.5505 19.954 97.0859 19.844 97.4819 19.624C97.8925 19.3893 98.0979 19.0887 98.0979 18.722C98.0979 18.4287 97.9805 18.194 97.7459 18.018C97.5259 17.842 97.1665 17.7173 96.6679 17.644L94.4679 17.314C93.3239 17.138 92.4585 16.7713 91.8719 16.214C91.2852 15.642 90.9919 14.894 90.9919 13.97C90.9919 13.222 91.1825 12.584 91.5639 12.056C91.9599 11.5133 92.5099 11.0953 93.2139 10.802C93.9325 10.494 94.7832 10.34 95.7659 10.34C96.6019 10.34 97.4159 10.4573 98.2079 10.692C99.0145 10.9267 99.7699 11.286 100.474 11.77L99.0219 13.728C98.3912 13.332 97.7899 13.046 97.2179 12.87C96.6459 12.694 96.0665 12.606 95.4799 12.606C94.9372 12.606 94.4972 12.7087 94.1599 12.914C93.8372 13.1193 93.6759 13.3907 93.6759 13.728C93.6759 14.036 93.7932 14.278 94.0279 14.454C94.2625 14.63 94.6659 14.7547 95.2379 14.828L97.4159 15.158C98.5599 15.3193 99.4325 15.686 100.034 16.258C100.635 16.8153 100.936 17.5413 100.936 18.436C100.936 19.1693 100.716 19.822 100.276 20.394C99.8359 20.9513 99.2419 21.3987 98.4939 21.736C97.7459 22.0587 96.8879 22.22 95.9199 22.22ZM103.317 22V6.6L106.331 5.94V11.484C107.196 10.7067 108.267 10.318 109.543 10.318C110.437 10.318 111.222 10.516 111.897 10.912C112.586 11.2933 113.121 11.8287 113.503 12.518C113.884 13.1927 114.075 13.9847 114.075 14.894V22H111.061V15.334C111.061 14.586 110.848 13.9993 110.423 13.574C109.997 13.134 109.418 12.914 108.685 12.914C108.171 12.914 107.717 13.0167 107.321 13.222C106.925 13.4127 106.595 13.6913 106.331 14.058V22H103.317Z" fill="white"/>
<defs>
<linearGradient id="paint0_linear_1107_1343" x1="-0.000138155" y1="15.0001" x2="29.9999" y2="15.0001" gradientUnits="userSpaceOnUse">
<stop stop-color="#6454F0"/>
<stop offset="1" stop-color="#6EE2F5"/>
</linearGradient>
<clipPath id="clip0_1107_1343">
<rect width="30" height="30" fill="white"/>
</clipPath>
</defs>
</svg>
